<svg viewBox="0 0 70 90" xmlns="http://www.w3.org/2000/svg"><g transform="translate(0 1)" fill="none" fill-rule="evenodd"><path d="M34.994 1.215c-6.84.774-10.565 1.66-13.629 6.535-3.063 4.876 0 18.54 0 19.918v5.475C16.92 30.665 13.331 27.32 10.6 23.11c-4.098-6.317-5.53-6.863-8.188-5.322C.615 18.83.325 24.6 3.767 31.828c2.592 5.443 7.68 11.614 17.189 15.354-.976 5.488 3.529 23.592 10.41 28.597 0 2.165.408 4.648 1.226 7.447-1.035 2.152-1.035 3.461 0 3.927 1.553.699 12.487.767 14.519-.414.239-1.243.35-3.449.331-6.618l4.53-1.557c.672 2.158 1.221 3.474 1.648 3.95.641.712 6.85.055 8.646-.562 1.796-.618 6.152-2.79 6.152-3.388 0-.598-.979-2.388-1.703-2.785-.483-.265-1.063-1.463-1.739-3.596 1.16-5.377.932-10.718-.68-16.023.898.54 2.305 1.777 3.25 1.34 1.169-.54 1.791-2.403 1.791-4.275 0-3.385-.925-7.341-5.042-13.712-2.744-4.247-7.107-9.352-13.089-15.315.152-9.89-.369-15.8-1.564-17.734-1.792-2.9-7.809-6.024-14.648-5.25z" fill="#FFF"/><path d="M22.457 6.688c.194-.796 3.888-5.227 12.827-5.7 3.477-.184 6.99.48 9.834 2.313 1.353.872 3.104 2.748 5.253 5.626C44.739 5.728 39.488 4.13 34.62 4.13c-7.303 0-12.357 3.356-12.163 2.56z" fill="#F2F2F2"/><path d="M21.186 33.432c.79-2.974.99-5.164.602-6.571-.583-2.111-2.416-10.093-1.457-16.07.96-5.976 6.728-9.153 14-9.7 7.273-.548 13.746 1.36 15.658 6.5 1.274 3.426 1.669 9.265 1.185 17.515m-30.225 7.941c-3.97-2.37-7.074-5.18-9.311-8.43-3.356-4.874-5.326-9.486-9.13-6.84-3.803 2.648 0 12.375 3.097 17.632 3.097 5.258 9.323 9.9 15.817 11.668M21 47c.52 13.071 3.506 22.241 8.959 27.51 8.18 7.904 20.866 7.685 29.976-1.023m-8.623-49.294c7.355 6.416 12.566 13.163 15.635 20.24 4.602 10.616 1.73 12.961 0 13.067-1.097.067-2.127-.106-3.244-3.23" stroke="#000" stroke-linecap="round" stroke-linejoin="round"/><path d="M55.595 34c5.82 13.1 8.983 21.849 9.488 26.245.757 6.594.757 9.248 0 11.687.254.776.812 2.099 1.672 3.968.975.713 1.463 1.544 1.463 2.494 0 1.425-2.811 2.57-6.916 3.757-4.106 1.189-7.502 1.29-7.99 0A75.937 75.937 0 0 0 52 78.964M31 76c1.015 3.72 1.522 6.262 1.522 7.628-1.522 1.848-.33 3.83.378 3.83.444 0 3.636.701 7.24.552 2.15-.09 6.083-.552 6.978-1.254.217-.443.217-2.048 0-4.813" stroke="#000" stroke-linecap="round" stroke-linejoin="round"/><path d="M42.505 14.079c.55-.048.938-.756.865-1.581-.072-.826-.576-1.456-1.126-1.408-.55.049-.938.757-.866 1.582.072.825.577 1.455 1.127 1.407z" fill="#000"/><ellipse fill="#000" transform="rotate(-5 28.127 13.581)" cx="28.127" cy="13.581" rx="1" ry="1.5"/><path d="M35.683 18.687c4.06-.213 5.343-1.67 5.03-3.23-.222-1.108-1.808-.361-5.054-.191-3.247.17-4.813-.145-4.984.906-.254 1.57.948 2.728 5.008 2.515z" fill="#000"/><path d="M36.325 22.942c-.81.575-2.334 1.67-2.334 1.67s.632 4.55 2.65 4.206c1.345-.23 2.017-1.632 2.017-4.205-.85-.743-1.628-1.3-2.333-1.671z" fill="#BD2639"/><path d="M36 17.983l.216 4.305m-3.395 2.174c1.091.147 2.831-.53 3.499-2.047.942 1.15 2.619 2.335 4.077 1.133" stroke="#000" stroke-linecap="round" stroke-linejoin="round"/><path d="M34.166 24.39c.386 2.916 1.24 4.255 2.563 4.017 1.323-.238 1.985-1.707 1.985-4.407" stroke="#000"/><path d="M35 30.794c.413.55 1.037.824 1.871.824.834 0 1.458-.412 1.871-1.236" stroke="#000" stroke-linecap="round" stroke-linejoin="round"/><path d="M6.262 23.5c1.045-.36 1.285-1.153.915-2.23-.37-1.075-1.242-2.112-2.286-1.752-1.044.36-1.53 1.698-1.17 2.743a2 2 0 0 0 2.541 1.24z" fill="#FFDAC9"/><path d="M9.011 20.135l.493-.49c.57-.837.705-1.358.407-1.56-.298-.203-.935-.042-1.911.483l1.011 1.567zm-2.88-2.942C5.781 15.731 5.423 15 5.058 15c-.364 0-.717.606-1.058 1.818l2.131.375zm-3.125-.324l-1.36 1.294c-.582-1.276-.771-1.985-.566-2.127.205-.142.847.135 1.926.833z" fill="#000"/><path d="M44 3.045c0-1.747 2.425-4.293 5.144-2.342 2.718 1.952 1.224 5.5-.325 6.352m-23.52-2.672c-.283-1.37-2.894-3.735-5.184-1.39-2.29 2.344-.632 5.102 1.21 5.857" stroke="#000" fill="#FFF" stroke-linecap="round" stroke-linejoin="round"/><path d="M65.513 56.755a2.152 2.152 0 0 1 1.483-.582c.836 0-.273 2.67-.996 2.67-.482 0-.644-.695-.487-2.088zm2.414.75c.08-1.023.52-1.421 1.32-1.193 1.201.34.313 2.698-.41 2.698-.482 0-.785-.501-.91-1.505z" fill="#000"/><path d="M46.851 4.564c.635.533 1.145 1.202 1.678.568.532-.635.379-1.546-.256-2.079-.635-.532-1.632-.436-2.165.198-.532.635.108.78.743 1.313zm-23.438 1.88c-.565.606-.873 1.234-1.41.812-.537-.422-.749-1.44-.186-2.233.563-.793 1.72-.565 2.326 0 .606.565-.165.815-.73 1.421z" fill="#ED2438"/><path d="M38.134 37.057c1.48-1.469 2.512-2.117 3.094-1.944.873.26 1.065 2.46.597 3.041-.312.387-1.542.022-3.69-1.097zm-.064.006c-1.713-1.19-2.841-1.649-3.384-1.378-.815.407-.622 2.608-.06 3.099.374.327 1.522-.247 3.444-1.72z" fill="#B7A4FF" stroke="#000"/></g></svg>