<svg viewBox="0 0 74 85" xmlns="http://www.w3.org/2000/svg"><g transform="translate(1 -32)" fill="none" fill-rule="evenodd"><path d="M.515 116.404C-2.351 78.97 13.03 65.554 13.03 64.172c0-1.465-1.613-15.216 0-21.21 1.613-5.995 10.062-10.755 17.969-10.755 7.907 0 16.036 6.07 17.541 11.798 1.506 5.729.452 10.393 0 16.318-.451 5.925 0 6.055 0 6.467 3.399-1.416 7.028-4.316 8.977-7.56 1.949-3.244 3.319-7.496 3.632-8.74.312-1.244-1.874-5.098-.816-6.147 1.057-1.05 2.061.37 2.475.711 1.182-.388 3.478-.957 5.542-.388 2.064.568 3.552 2.98 3.826 3.945.384 1.352 0 3.44-1.566 6.692 0 1.43-.14 4.087-.487 6.247-.586 3.641-2.628 9.709-7.315 16.382-4.846 6.9-10.483 8.438-10.287 9.21 2.259 8.879 3.453 22.739 2.081 29.262H.515z" fill="#FFF"/><path d="M.516 115.24C-2.496 76.637 13.03 66.317 13.03 64.45c0-1.868-1.586-15.503 0-21.488 1.585-5.986 8.792-10.917 18.054-10.448 9.261.47 15.15 4.3 17.49 11.378 1.746 5.283-.942 19.26-.324 22.808" stroke="#000" stroke-linecap="round" stroke-linejoin="round"/><path d="M47.504 42.185c1.566-.732 2.865-2.278 3.03-3.84.259-2.472-1.526-4.897-3.998-5.157-1.84-.194-3.99.908-4.777 2.562M19.629 35.677a4.502 4.502 0 0 0-8.613 2.05 4.5 4.5 0 0 0 2.86 3.96" stroke="#000" fill="#FFF" stroke-linecap="round" stroke-linejoin="round"/><path d="M44.804 38.853c1.424 1.576 1.424 2.282 2.29 1.452.864-.829.976-2.559 0-3.535-.977-.976-2.924-.725-3.536 0-.613.724-.177.507 1.246 2.083zM17.057 38.853c-1.424 1.576-1.424 2.282-2.289 1.452-.865-.829-.976-2.559 0-3.535s2.934-.738 3.536 0c.601.738.177.507-1.247 2.083z" fill="#ED2438"/><path d="M33 52.32c4.107 0 6-1.324 6-2.898s-2.686-1.068-6-1.068-6-.489-6 1.068 1.893 2.899 6 2.899z" fill="#000"/><path d="M33 51.277c.277 1.967.277 3.541 0 4.723" stroke="#000"/><path d="M62.028 45.05c-.832-.484-1.424-.575-1.93-.2-.291.217-.088.847.776 2.25l.103.167c.569.919.765 1.263.932 1.697a.5.5 0 0 1 .028.25c-1.04 7.209-6.486 15.575-13.629 18.236a.5.5 0 1 1-.349-.937c6.715-2.502 11.93-10.461 12.969-17.308-.133-.313-.331-.653-.8-1.412l-.106-.17c-1.187-1.926-1.487-2.857-.52-3.575.91-.676 1.888-.525 3.028.137.118.068.375.23.562.35 1.85-.712 4.533-.881 6.046-.226 3.753 1.625 5.133 5.745 2.014 11.198-.02 4.359-1.016 9.523-3.206 14.594-2.953 6.836-7.8 12.92-14.816 17.796a.5.5 0 0 1-.57-.821C64.9 78.5 70.153 66.339 70.153 55.373a.5.5 0 0 1 .068-.252c2.904-4.993 1.75-8.496-1.48-9.894-1.301-.563-3.886-.368-5.503.328a.5.5 0 0 1-.46-.033 30.75 30.75 0 0 0-.75-.472z" fill="#000" fill-rule="nonzero"/><path d="M60.064 67.63c-1.044-.84-1.6-1.096-1.666-.765-.066.331.368 1.19 1.303 2.575l.363-1.81z"/><path d="M50.305 79.362c3.944 10.7 5.381 23.041 4.312 37.022" stroke="#000" stroke-linecap="round" stroke-linejoin="round"/><path d="M33.04 61.827c5.883 0 9.182-2.914 8.325-4.794-.857-1.881-3.592-.595-8.326-.595s-8.305-1.307-8.964.595c-.66 1.902 3.08 4.794 8.964 4.794z" stroke="#000" fill="#BD2639"/><ellipse stroke="#000" stroke-width=".5" fill="#000" cx="41" cy="46.5" rx="1" ry="1.5"/><ellipse stroke="#000" stroke-width=".5" fill="#000" cx="25" cy="46.5" rx="1" ry="1.5"/><g fill="#F8E71C" fill-rule="nonzero"><path d="M61.43 40.415a1 1 0 1 1-2 0V38.46a1 1 0 1 1 2 0v1.955zM57.509 41.625a1 1 0 0 1-1.415 1.414l-1.382-1.382a1 1 0 1 1 1.415-1.414l1.382 1.382zM65.058 42.746a1 1 0 0 1-1.414-1.414l1.382-1.382a1 1 0 0 1 1.414 1.414l-1.382 1.382z"/></g></g></svg>