<svg viewBox="0 0 78 84" xmlns="http://www.w3.org/2000/svg"><g transform="translate(1)" fill="none" fill-rule="evenodd"><path d="M3.515 84C.65 46.567 16.03 33.554 16.03 32.172c0-1.465-1.613-15.216 0-21.21C17.643 4.967 23.848.642 33.944.642c10.097 0 14.9 5.618 16.405 11.347 1.505 5.729 1.18 10.156.728 16.081-.152 2.002.416 7.09 1.266 9.105 1.665 3.945 4.612 10.006 7.723 13.832 6.669 8.201 14.387 12.117 15.16 15.137.774 3.02-1.475 5.562-4.299 6.38-2.823.818-5.83 1.45-10.86-2.24-3.93-2.88-4.107-6.653-3.813-5.925 1.148 2.846 2.097 13.168-.281 19.641H3.515z" fill="#FFF"/><path d="M3.545 83.437C.533 44.833 16.03 34.317 16.03 32.45c0-1.868-1.586-15.503 0-21.488C17.615 4.976 24.822.045 34.084.514c9.261.47 13.754 4.194 16.12 11.247 1.35 4.027 1.35 13.969.874 17.675 0 1.56-.44 6.455 6.533 17.562 8.048 12.819 14.523 13.838 17.322 18.91 1.225 2.22-.392 4.893-2.8 6.052-2.806 1.353-6.094 1.066-9.136-.417-3.25-1.584-5.412-3.576-6.487-5.975" stroke="#000" stroke-linecap="round" stroke-linejoin="round"/><path d="M49.15 10.028c1.566-.732 3.066-2.308 3.23-3.87.26-2.472-1.525-4.897-3.997-5.157-1.84-.194-3.99.908-4.777 2.562M22.629 3.677a4.502 4.502 0 0 0-8.613 2.05 4.5 4.5 0 0 0 2.86 3.96" stroke="#000" fill="#FFF" stroke-linecap="round" stroke-linejoin="round"/><path d="M46.805 6.386c1.424 1.576 1.424 2.281 2.289 1.452.865-.829.976-2.56 0-3.535-.976-.977-2.923-.725-3.536 0-.612.724-.177.506 1.247 2.083zM20.057 6.853c-1.424 1.576-1.424 2.282-2.289 1.452-.865-.829-.976-2.559 0-3.535s2.934-.738 3.536 0c.601.738.177.507-1.247 2.083z" fill="#ED2438"/><path d="M36 22.044c4.107 0 6-1.325 6-2.899 0-1.573-2.686-1.068-6-1.068s-6-.489-6 1.068c0 1.558 1.893 2.899 6 2.899z" fill="#000"/><path d="M34.012 26.348c.528-.74 1.518-.64 2.208-1.348.555.59 1.723 1.348 2.414 1.348.691 0-.672 4.752-2.136 4.752-1.465 0-2.696-2.93-2.486-4.752z" fill="#BD2639"/><path d="M36 21c.277 1.967.277 3.541 0 4.723" stroke="#000"/><path d="M32 25.727c.984.533 3.468.884 4.072-.727.662 1.61 2.927 1.61 4.071.727" stroke="#000" stroke-linecap="round" stroke-linejoin="round"/><path d="M38.83 26c-.384 3.43-1.19 5.146-2.415 5.146S34.385 29.43 34 26" stroke="#000"/><path d="M63.064 35.63c-1.044-.84-1.6-1.096-1.666-.765-.066.331.368 1.19 1.303 2.575l.363-1.81z"/><path d="M67.997 69.203c1.865 0 2.957-.644 2.957-1.96 0-1.314-1.238-2.017-2.956-2.518-1.717-.5-2.998.909-2.998 1.969s1.132 2.509 2.997 2.509z" fill="#FFDAC9"/><path d="M51.487 43.069c.432 2.99.89 5.383 1.377 7.179 1.515 5.6 6.418 16.34 3.221 33.189" stroke="#000" stroke-linecap="round" stroke-linejoin="round"/><path d="M73.115 63.551c2.268.7 3.554 1.23 3.858 1.592.303.36-.327.716-1.893 1.067l-1.965-2.659zM74.638 69.954c-1.04 1.017-1.397 1.604-1.074 1.761.484.235 2.973-.504 2.973-.839 0-.223-.633-.53-1.9-.922zM69.413 72.837c-1.75-.04-2.638.103-2.667.427-.042.485 2.785 1.328 3.095 1.217.207-.074.065-.622-.428-1.644z" fill="#000"/><g stroke="#000"><path d="M23.983 41.255a1.5 1.5 0 0 0-1.837 1.06l-5.624 20.987a1.5 1.5 0 0 0 1.06 1.837l15.071 4.038a1.5 1.5 0 0 0 1.837-1.06l5.624-20.987a1.5 1.5 0 0 0-1.061-1.837l-15.07-4.038z" fill="#EDE8FF"/><path d="M30.227 41.276l-.13.483-2.916-.781a1.361 1.361 0 0 0-.705 2.63l9.1 2.438a1.361 1.361 0 1 0 .704-2.63l-2.916-.782.129-.483a1.69 1.69 0 0 0-3.266-.875z" fill="#BBAEE8"/></g><path d="M15.333 48.237c-.215 3.397.34 5.503 1.667 6.318 2.77 1.7 7.067-3.262 12.354 0 5.286 3.261 1.631 11.406-5.315 12.574-15.221 2.56-20.948-1.655-22.873-6.951-2.82-7.76 1.902-16.645 14.167-26.655" stroke="#000" fill="#FFF"/><path d="M24.452 53.471c1.797-1.098 2.857-1.542 3.18-1.33.324.213.19.656-.403 1.33h-2.777zM30.749 55.162c1.596-.216 2.455-.216 2.578 0 .122.216-.42.768-1.623 1.655l-.955-1.655zM31.873 57.845c.933-.364 1.49-.44 1.67-.23.18.21-.317 1.096-1.49 2.657l-.18-2.427z" fill="#000"/><ellipse stroke="#000" stroke-width=".5" fill="#000" cx="44" cy="15.5" rx="1" ry="1.5"/><ellipse stroke="#000" stroke-width=".5" fill="#000" cx="27" cy="15.5" rx="1" ry="1.5"/></g></svg>