<svg viewBox="0 0 59 84" xmlns="http://www.w3.org/2000/svg" xmlns:xlink="http://www.w3.org/1999/xlink"><defs><path id="a" d="M0 0h62v86H0z"/></defs><g transform="translate(0 -2)" fill="none" fill-rule="evenodd"><mask id="b" fill="#fff"><use xlink:href="#a"/></mask><path d="M-14.485 86.404C-17.351 48.97-1.97 35.554-1.97 34.172c0-1.465-1.613-15.216 0-21.21 1.613-5.995 7.818-10.32 17.914-10.32 10.097 0 14.9 5.618 16.405 11.347 1.505 5.729 1.18 10.156.728 16.081-.152 2.002.416 7.09 1.266 9.105 1.665 3.945 4.612 10.006 7.723 13.832 6.669 8.201 14.387 12.117 15.16 15.137.774 3.02-1.475 5.562-4.299 6.38-2.823.818-5.83 1.45-10.86-2.24-3.93-2.88-4.107-6.653-3.813-5.925 1.148 2.846 2.436 13.837-.548 20.045h-52.191z" fill="#FFF" mask="url(#b)"/><path d="M-14.484 85.24C-17.496 46.637-1.97 36.317-1.97 34.45c0-1.868-1.586-15.503 0-21.488C-.385 6.976 6.822 2.045 16.084 2.514c9.261.47 13.754 4.194 16.12 11.247 1.35 4.027 1.35 13.969.874 17.675 0 1.56-.44 6.455 6.533 17.562 8.048 12.819 14.523 13.838 17.322 18.91 1.225 2.22-.392 4.893-2.8 6.052-2.806 1.353-6.094 1.066-9.136-.417-3.25-1.584-5.412-3.576-6.487-5.975" stroke="#000" stroke-linecap="round" stroke-linejoin="round" mask="url(#b)"/><path d="M31.623 11.876c1.482-.892 2.81-2.616 2.81-4.187 0-2.486-2.03-4.71-4.515-4.71-1.851 0-3.873 1.32-4.483 3.046" stroke="#000" fill="#FFF" stroke-linecap="round" stroke-linejoin="round" mask="url(#b)" transform="rotate(6 29.934 7.427)"/><path d="M4.708 5.902A4.502 4.502 0 0 0-4 7.5a4.5 4.5 0 0 0 2.65 4.103" stroke="#000" fill="#FFF" stroke-linecap="round" stroke-linejoin="round" mask="url(#b)" transform="rotate(-3 .354 7.302)"/><path d="M29.787 8.912c2.121.107 2.62.606 2.646-.592.025-1.198-1.12-2.5-2.5-2.5-1.381 0-2.58 1.555-2.5 2.5.079.946.233.484 2.354.592z" fill="#ED2438" mask="url(#b)" transform="rotate(45 29.931 7.463)"/><path d="M.788 9.378c2.122.108 2.62.607 2.646-.591.025-1.198-1.12-2.5-2.5-2.5s-2.596 1.553-2.5 2.5c.096.947.233.484 2.354.591z" fill="#ED2438" mask="url(#b)" transform="scale(-1 1) rotate(45 0 5.68)"/><path d="M18 24.044c4.107 0 6-1.325 6-2.899 0-1.573-2.686-1.068-6-1.068s-6-.489-6 1.068c0 1.558 1.893 2.899 6 2.899z" fill="#000" mask="url(#b)"/><path d="M16.012 28.348c.528-.74 1.518-.64 2.208-1.348.555.59 1.723 1.348 2.414 1.348.691 0-.672 4.752-2.136 4.752-1.465 0-2.696-2.93-2.486-4.752z" fill="#BD2639" mask="url(#b)"/><path d="M18 23c.277 1.967.277 3.541 0 4.723" stroke="#000" mask="url(#b)"/><path d="M14 27.727c.984.533 3.468.884 4.072-.727.662 1.61 2.927 1.61 4.071.727" stroke="#000" stroke-linecap="round" stroke-linejoin="round" mask="url(#b)"/><path d="M20.83 28c-.384 3.43-1.19 5.146-2.415 5.146S16.385 31.43 16 28" stroke="#000" mask="url(#b)"/><path d="M45.064 37.63c-1.044-.84-1.6-1.096-1.666-.765-.066.331.368 1.19 1.303 2.575l.363-1.81z" mask="url(#b)"/><path d="M49.997 71.203c1.865 0 2.957-.644 2.957-1.96 0-1.314-1.238-2.017-2.956-2.518-1.717-.5-2.998.909-2.998 1.969s1.132 2.509 2.997 2.509z" fill="#FFDAC9" mask="url(#b)"/><path d="M33.487 45.069c.432 2.99.89 5.383 1.377 7.179 1.515 5.6 6.302 17.095 3.105 33.943" stroke="#000" stroke-linecap="round" stroke-linejoin="round" mask="url(#b)"/><path d="M55.115 65.551c2.268.7 3.554 1.23 3.858 1.592.303.36-.327.716-1.893 1.067l-1.965-2.659zM56.638 71.954c-1.04 1.017-1.397 1.604-1.074 1.761.484.235 2.973-.504 2.973-.839 0-.223-.633-.53-1.9-.922z" fill="#000" mask="url(#b)"/><path d="M51.346 74.748c-1.746.113-2.62.332-2.62.657 0 .488 2.89 1.081 3.19.943.2-.092.01-.625-.57-1.6z" fill="#000" mask="url(#b)" transform="rotate(5 50.36 75.558)"/><g mask="url(#b)" stroke="#000"><path d="M5.983 43.255a1.5 1.5 0 0 0-1.837 1.06l-5.624 20.987a1.5 1.5 0 0 0 1.06 1.837l15.071 4.038a1.5 1.5 0 0 0 1.837-1.06l5.624-20.987a1.5 1.5 0 0 0-1.061-1.837l-15.07-4.038z" fill="#EDE8FF"/><path d="M12.227 43.276l-.13.483-2.916-.781a1.361 1.361 0 0 0-.705 2.63l9.1 2.438a1.361 1.361 0 1 0 .704-2.63l-2.916-.782.129-.483a1.69 1.69 0 0 0-3.266-.875z" fill="#BBAEE8"/></g><path d="M-2.667 50.237c-.215 3.397.34 5.503 1.667 6.318 2.77 1.7 7.067-3.262 12.354 0 5.286 3.261 1.631 11.406-5.315 12.574-15.221 2.56-20.948-1.655-22.873-6.951-2.82-7.76 1.902-16.645 14.167-26.655" stroke="#000" fill="#FFF" mask="url(#b)"/><path d="M6.452 55.471c1.797-1.098 2.857-1.542 3.18-1.33.324.213.19.656-.403 1.33H6.452zM12.749 57.162c1.596-.216 2.455-.216 2.578 0 .122.216-.42.768-1.623 1.655l-.955-1.655zM13.873 59.845c.933-.364 1.49-.44 1.67-.23.18.21-.317 1.096-1.49 2.657l-.18-2.427z" fill="#000" mask="url(#b)"/><ellipse stroke="#000" stroke-width=".5" fill="#000" mask="url(#b)" cx="26" cy="17.5" rx="1" ry="1.5"/><ellipse stroke="#000" stroke-width=".5" fill="#000" mask="url(#b)" cx="9" cy="17.5" rx="1" ry="1.5"/></g></svg>