<svg viewBox="0 0 58 84" xmlns="http://www.w3.org/2000/svg" xmlns:xlink="http://www.w3.org/1999/xlink"><defs><path id="a" d="M0 0h62v86H0z"/></defs><g transform="translate(0 -2)" fill="none" fill-rule="evenodd"><mask id="b" fill="#fff"><use xlink:href="#a"/></mask><path d="M-14.485 86.404C-17.351 48.97-1.97 35.554-1.97 34.172c0-1.465-1.613-15.216 0-21.21C-.357 6.967 8.092 2.207 15.999 2.207c7.907 0 16.036 6.07 17.541 11.798 1.506 5.729.452 10.393 0 16.318-.451 5.925 0 6.055 0 6.467 3.399-1.416 7.028-4.316 8.977-7.56 1.949-3.244 3.319-7.496 3.632-8.74.312-1.244-1.874-5.098-.816-6.147 1.057-1.05 2.061.37 2.475.711 1.182-.388 3.478-.957 5.542-.388 2.064.568 3.552 2.98 3.826 3.945.384 1.352 0 3.44-1.566 6.692 0 1.43-.14 4.087-.487 6.247-.586 3.641-2.628 9.709-7.315 16.382-4.846 6.9-10.483 8.438-10.287 9.21 2.259 8.879 3.453 22.739 2.081 29.262h-54.087z" fill="#FFF" mask="url(#b)"/><path d="M-14.484 85.24C-17.496 46.637-1.97 36.317-1.97 34.45c0-1.868-1.586-15.503 0-21.488C-.385 6.976 6.822 2.045 16.084 2.514c9.261.47 15.15 4.3 17.49 11.378 1.746 5.283-.942 19.26-.324 22.808" stroke="#000" stroke-linecap="round" stroke-linejoin="round" mask="url(#b)"/><path d="M32.976 12.012c1.482-.891 2.612-2.565 2.612-4.136 0-2.486-2.03-4.71-4.515-4.71-1.85 0-3.872 1.32-4.482 3.046" stroke="#000" fill="#FFF" stroke-linecap="round" stroke-linejoin="round" mask="url(#b)" transform="rotate(6 31.09 7.589)"/><path d="M4.708 5.902A4.502 4.502 0 0 0-4 7.5a4.5 4.5 0 0 0 2.65 4.103" stroke="#000" fill="#FFF" stroke-linecap="round" stroke-linejoin="round" mask="url(#b)" transform="rotate(-3 .354 7.302)"/><path d="M30.786 9.379c2.122.108 2.62.606 2.646-.592.025-1.198-1.12-2.5-2.5-2.5s-2.58 1.555-2.5 2.5c.08.946.233.484 2.354.592z" fill="#ED2438" mask="url(#b)" transform="rotate(45 30.93 7.93)"/><path d="M.788 9.378c2.122.108 2.62.607 2.646-.591.025-1.198-1.12-2.5-2.5-2.5s-2.596 1.553-2.5 2.5c.096.947.233.484 2.354.591z" fill="#ED2438" mask="url(#b)" transform="scale(-1 1) rotate(45 0 5.68)"/><path d="M18 22.32c4.107 0 6-1.324 6-2.898s-2.686-1.068-6-1.068-6-.489-6 1.068 1.893 2.899 6 2.899z" fill="#000" mask="url(#b)"/><path d="M18 21.277c.277 1.967.277 3.541 0 4.723" stroke="#000" mask="url(#b)"/><path d="M32.963 32.156c8.611.085 16.17-7.148 18.818-11.883 0-1.584-1.232-4.586.149-4.971 1.38-.386 2.25 1.044 2.793 1.764 1.705-.068 4.412.62 5.625 1.809 1.921 1.881 3.414 5.997-2.201 10.514-2.35 6.124-10.039 19.156-28.134 23.599" stroke="#000" stroke-linecap="round" stroke-linejoin="round" mask="url(#b)" transform="rotate(-21 46.046 34.112)"/><path d="M45.064 37.63c-1.044-.84-1.6-1.096-1.666-.765-.066.331.368 1.19 1.303 2.575l.363-1.81z" mask="url(#b)"/><path d="M35.305 49.362c3.944 10.7 5.381 23.041 4.312 37.022" stroke="#000" stroke-linecap="round" stroke-linejoin="round" mask="url(#b)"/><path d="M18.04 31.827c5.883 0 9.182-2.914 8.325-4.794-.857-1.881-3.592-.595-8.326-.595s-8.305-1.307-8.964.595c-.66 1.902 3.08 4.794 8.964 4.794z" stroke="#000" fill="#BD2639" mask="url(#b)"/><ellipse stroke="#000" stroke-width=".5" fill="#000" mask="url(#b)" cx="26" cy="16.5" rx="1" ry="1.5"/><ellipse stroke="#000" stroke-width=".5" fill="#000" mask="url(#b)" cx="10" cy="16.5" rx="1" ry="1.5"/><g mask="url(#b)" stroke="#F8E71C" stroke-linecap="round" stroke-linejoin="round" stroke-width="2"><path d="M45.43 10.415V8.46M41.801 12.332L40.42 10.95M49.351 12.04l1.382-1.383"/></g></g></svg>